<?xml version="1.0" encoding="UTF-8"?>
<!-- Created with Inkscape (http://www.inkscape.org/) -->
<svg width="500" height="500" version="1.1" viewBox="0 0 500 500" xmlns="http://www.w3.org/2000/svg">
 <path d="m203.26 363.87c-26.807 0-27-0.0151-27-2.1111 0-1.8582 0.73467-2.1777 6.1314-2.6671 3.5758-0.32424 6.7836-1.2082 7.6962-2.1208 0.9062-0.9062 1.8816-4.4136 2.3173-8.3329 0.41383-3.7224 0.77553-15.645 0.80377-26.495l0.0513-19.727 9.17-4.5228c5.0435-2.4875 9.5435-4.5228 10-4.5228s0.85311 10.912 0.88135 24.25c0.0282 13.338 0.38994 27.296 0.80377 31.018 0.46004 4.138 1.3998 7.4154 2.4184 8.434 1.0536 1.0536 3.8826 1.8263 7.6962 2.1021 5.3496 0.38696 6.0303 0.6766 6.0303 2.566 0 2.1205-0.11813 2.1298-27 2.1298zm99 0c-24 0-24 0-24-2.25 9e-5 -1.7865 0.56661-2.2512 2.7501-2.2556 1.5125-3e-3 4.4322-0.47275 6.4882-1.0438s4.1461-1.806 4.6446-2.7444c0.49849-0.93844 1.1677-5.5312 1.4871-10.206s0.83578-19.3 1.1475-32.5c0.31172-13.2 0.96226-29.85 1.4456-37 0.51935-7.6822 1.7788-16.26 3.0789-20.97 1.21-4.3834 2.9041-9.1084 3.7646-10.5 0.86055-1.3916 2.4936-3.3077 3.629-4.258s2.8519-1.7378 3.8144-1.75c1.6142-0.0205 1.75 1.6813 1.75 21.931 0 14.97 0.38496 22.843 1.2102 24.75 0.66561 1.5384 2.9074 5.3478 4.9819 8.4655 2.0744 3.1176 5.0173 6.9684 6.5398 8.5573 1.5225 1.5889 5.0806 4.7756 7.9069 7.0816 2.8263 2.306 5.4909 4.1927 5.9213 4.1927s1.4929 0.6058 2.3612 1.3462 4.6339 2.5456 8.368 4.0115c4.231 1.661 10.26 3.0079 16 3.5746 5.0659 0.5001 11.236 0.70921 13.711 0.46469s6.7465-0.90251 9.4923-1.4622 7.9208-2.6052 11.5-4.5456 8.2341-5.4093 10.344-7.7086c2.11-2.2993 5.1846-6.1707 6.8326-8.6031 1.648-2.4324 3.8486-6.5847 4.8902-9.2275 1.0417-2.6427 2.8702-8.7526 4.0633-13.578 1.7088-6.91 2.1873-11.957 2.2539-23.773 0.0695-12.33-0.31299-16.626-2.1485-24.135-1.2282-5.0242-3.4309-11.774-4.8949-15-1.4641-3.2259-4.6115-8.4167-6.9943-11.535-2.3828-3.1185-6.6963-7.6751-9.5855-10.126s-7.0801-5.3771-9.313-6.5033-6.7979-2.7572-10.144-3.6244-9.3944-1.5752-13.44-1.5734c-4.0456 2e-3 -11.406 0.70687-16.356 1.5669-4.95 0.86003-13.05 2.945-18 4.6333s-14.112 5.7502-20.36 9.0266c-6.248 3.2763-15.023 8.3644-19.5 11.307-4.477 2.9424-10.165 6.7148-12.64 8.3831-2.475 1.6683-7.65 5.3163-11.5 8.1068s-14.443 10.563-23.541 17.273c-9.0975 6.7099-19.897 14.401-24 17.091-4.1025 2.6899-8.6386 5.6979-10.08 6.6845s-6.6165 3.8118-11.5 6.2783c-4.8835 2.4664-10.904 5.3557-13.379 6.4206-2.475 1.0649-6.975 2.8815-10 4.0369s-8.65 2.9768-12.5 4.0475c-3.85 1.0707-11.275 2.7418-16.5 3.7136-6.3173 1.1748-14.358 1.7641-24 1.7588-11.667-6e-3 -16.356-0.45582-24-2.3002-5.225-1.2608-13.1-4.0608-17.5-6.2224s-10.837-6.1834-14.305-8.9374-8.8904-8.4945-12.051-12.757c-3.2636-4.4017-7.0946-11.176-8.8679-15.682-1.7171-4.3628-3.6068-11.169-4.1994-15.124-0.59258-3.9554-1.0774-11.01-1.0774-15.678 0-4.6674 0.47616-11.91 1.0581-16.094 0.58198-4.1843 2.1196-10.428 3.4168-13.874 1.2973-3.4466 3.3757-8.0431 4.6188-10.215 1.2431-2.1714 4.6464-6.9121 7.5629-10.535 2.9166-3.6226 7.8994-8.6097 11.073-11.082 3.1736-2.4727 8.0202-5.6878 10.77-7.1448s7.025-3.5047 9.5-4.5506 8.325-2.6868 13-3.6465c5.3804-1.1045 12.904-1.7356 20.5-1.7197 7.7521 0.0162 14.301 0.60701 18.5 1.6689 3.575 0.9041 8.75 2.5807 11.5 3.7257 2.75 1.145 8.375 4.5006 12.5 7.4569s9.8625 7.4593 12.75 10.007l5.25 4.6316v-5.9553c0-4.897-0.39986-6.3226-2.25-8.0217-1.2375-1.1365-3.7384-2.3814-5.5575-2.7664-2.5531-0.54037-3.2374-1.1496-3-2.671 0.29429-1.8864 1.2617-1.979 22.558-2.1579 22.11-0.18579 22.25-0.17354 22.25 1.9478-9e-5 1.8392-0.76625 2.2305-5.5327 2.826-3.4761 0.43431-6.4801 1.5062-8.0816 2.8838-2.4128 2.0754-2.5961 2.9454-3.4308 16.28-0.54816 8.7565-1.6984 17.074-3.0398 21.981-1.1869 4.342-3.058 9.818-4.1582 12.169-1.1001 2.3509-3.2511 5.6134-4.7799 7.25-1.5288 1.6366-3.2741 2.9756-3.8784 2.9756-0.74429 0-1.0988-4.3684-1.0988-13.54 0-11.545-0.29326-14.115-1.9906-17.442-1.0948-2.146-3.0073-5.3942-4.25-7.2182-1.2427-1.824-3.8029-5.2323-5.6895-7.5741-1.8865-2.3418-5.7758-6.0288-8.6428-8.1934-2.867-2.1646-8.0735-5.356-11.57-7.0919-3.4964-1.7359-7.1152-3.5432-8.0418-4.0161s-4.5265-1.3211-8-1.8848c-3.4735-0.56364-9.7808-1.0282-14.016-1.0324-4.2354-4e-3 -10.085 0.49178-13 1.1021s-8.2647 2.6532-11.889 4.5398c-3.6245 1.8866-8.3718 5.1423-10.55 7.2349-2.1778 2.0926-5.6508 6.3526-7.7177 9.4666s-5.0734 9.4578-6.681 14.097c-2.0102 5.8016-3.2721 12.123-4.0414 20.244-0.62005 6.5458-0.81692 16.036-0.44176 21.295 0.37222 5.2177 1.1334 11.968 1.6914 15 0.55807 3.0323 1.3443 5.9633 1.7472 6.5133 0.40289 0.55 1.2627 2.8569 1.9108 5.1265s3.3704 7.4446 6.0497 11.5c2.6793 4.0554 6.8404 9.2343 9.2469 11.509s6.3527 5.3583 8.7693 6.8534c2.4166 1.4951 6.9166 3.6229 10 4.7286 4.4952 1.6119 8.0833 2.0072 18.106 1.9951 9.5305-0.0115 14.519-0.53229 21-2.1921 4.675-1.1973 10.975-3.0643 14-4.1489s9.775-4.0465 15-6.5821 11.975-6.1922 15-8.1259 8.65-5.5565 12.5-8.0506 15.1-10.366 25-17.492c9.9-7.1265 22.275-16.164 27.5-20.083 5.225-3.9189 12.815-9.2872 16.867-11.93 4.0516-2.6424 12.152-7.3776 18-10.523 5.8484-3.1452 14.683-7.3514 19.633-9.3472s11.7-4.3692 15-5.2741c3.3-0.90494 9.15-2.2329 13-2.9509s9.9769-1.8023 13.615-2.4094c3.6384-0.60709 11.063-1.1031 16.5-1.1022 5.7106 9e-4 14.319 0.84602 20.385 2.0013 5.775 1.0999 12.975 3.0327 16 4.2951 3.025 1.2624 7.3 3.2505 9.5 4.4178s6.9864 4.6016 10.636 7.6316 8.6411 8.1289 11.091 11.331c2.4502 3.202 5.6252 8.1691 7.0555 11.038 1.4303 2.869 3.6392 8.944 4.9087 13.5 1.9642 7.0491 2.3038 10.594 2.2787 23.784-0.0251 13.2-0.3668 16.613-2.303 23-1.2504 4.125-3.6501 10.2-5.3326 13.5s-4.5523 8.0426-6.3773 10.539c-1.825 2.4964-5.7596 6.848-8.7436 9.67-2.9839 2.8221-7.876 6.6987-10.871 8.6148-2.9953 1.9161-8.1228 4.6064-11.394 5.9786-3.2716 1.3722-9.0984 3.3267-12.948 4.3436-5.3651 1.4169-10.62 1.8494-22.5 1.8514-10.274 2e-3 -17.017-0.45925-20-1.3672-2.475-0.75341-6.3-2.0204-8.5-2.8154-2.2-0.79508-6.925-3.1864-10.5-5.3141-3.575-2.1277-9.875-6.8621-14-10.521-7.5-6.6524-7.5-6.6524-8.1607-2.8161-0.36338 2.11-0.98148 9.2551-1.3736 15.878-0.46476 7.8507-0.27264 15.856 0.55201 23 0.69569 6.027 1.6916 11.503 2.2132 12.169 0.52158 0.66576 3.608 1.5114 6.8587 1.8792 5.1459 0.58219 5.9103 0.943 5.91 2.7895-3.4e-4 2.1022-0.21132 2.1208-24 2.1208zm-14.082-183.5c-0.51018 0-0.91784-5.7896-0.91784-13.035 0-10.633-0.3182-13.535-1.7269-15.75-0.9498-1.4932-2.1873-3.0398-2.75-3.4371-0.56271-0.39723-3.6106-1.0179-6.7731-1.3792-4.9861-0.56965-5.75-0.93869-5.7499-2.7778 9e-5 -2.1105 0.13018-2.1204 26.75-2.0299 25.627 0.0871 26.75 0.17107 26.75 2 0 1.5447-0.96128 2.0264-5.0361 2.5238-2.7698 0.3381-5.976 0.91302-7.1247 1.2776-1.246 0.39546-2.7443 2.3798-3.7139 4.9187-0.97689 2.558-1.6253 7.2436-1.6253 11.745 0 7.4446-0.0194 7.499-3.25 9.1374-1.7875 0.90652-5.6495 2.8089-8.5822 4.2274s-5.7452 2.5792-6.25 2.5792z"/>
</svg>
